PathFileType	4	(X/Y/Z)	C:\Users\WrightLab\Desktop\Jo\P5V32.trc
DataRate	CameraRate	NumFrames	NumMarkers	Units	OrigDataRate	OrigDataStartFrame	OrigNumFrames
100.00	100.00	      12	19	mm	100.00	688	      1100
Frame#	Time	Headset_Front			Headset_Back			Headset_Left			Headset_Right			Left_Shoulder			Right_Shoulder			Sternum			C7			Left Elbow			Right Elbow			Left Wrist			Right Wrist			Left ASIS			Right ASIS			S2			Left Knee			Right Knee			Left Ankle			Right Ankle			
		X1	Y1	Z1	X2	Y2	Z2	X3	Y3	Z3	X4	Y4	Z4	X5	Y5	Z5	X6	Y6	Z6	X7	Y7	Z7	X8	Y8	Z8	X9	Y9	Z9	X10	Y10	Z10	X11	Y11	Z11	X12	Y12	Z12	X13	Y13	Z13	X14	Y14	Z14	X15	Y15	Z15	X16	Y16	Z16	X17	Y17	Z17	X18	Y18	Z18	X19	Y19	Z19	

688	6.870	-674.84900	1540.72778	871.83075	-569.49652	1681.88171	989.09930							-361.14923	1546.04346	1105.69775	-496.65436	1467.29968	722.50891	-508.30203	1344.44641	945.44989	-474.08508	1784.87439	882.14270	-489.32840	1335.90649	1166.77014	-506.05978	1224.69226	588.35632	-295.28281	1279.33777	1209.63794	-707.87177	1130.73022	671.87402	-448.65482	962.05347	1110.34460	-550.15753	963.76642	833.28418	-234.49832	998.94189	853.11200	-353.93304	515.61633	1076.40552	-594.29755	547.33820	832.14673	-152.53265	125.91943	954.87726	-562.95093	126.43060	865.72998	
689	6.880	-679.64032	1540.07886	868.02039	-575.48938	1681.49646	986.07190							-368.68314	1546.02917	1105.66699	-499.62885	1465.64221	721.04712	-513.60876	1343.50061	944.51721	-479.18756	1784.34875	879.93933	-496.85257	1336.24146	1165.45947	-507.04950	1223.52856	586.26434	-303.84918	1277.67029	1209.04163	-708.99591	1128.88928	667.47980	-454.29504	962.02783	1110.01013	-553.38715	962.24536	834.00970	-237.69130	998.62805	854.76160	-358.69873	515.71857	1077.80139	-598.71655	546.35962	832.97400	-152.98749	126.52551	954.82507	-567.37402	126.03014	862.91040	
690	6.890	-684.39642	1539.41345	864.04681	-582.03381	1681.35437	982.99072							-375.80862	1546.25476	1105.27917	-502.65582	1464.06787	719.41693	-519.31482	1343.21265	943.36462	-484.05063	1783.48767	877.68939	-505.91733	1337.56494	1164.50647	-506.76035	1221.62512	585.03723	-312.72513	1278.17847	1208.80212	-710.55847	1127.23059	662.99799	-460.55136	962.45898	1110.46338	-558.08002	961.40875	834.29242	-242.73404	997.94843	856.78101	-363.07297	514.69427	1078.24219	-604.33160	546.70673	832.72717	-153.40582	127.01012	955.41803	-571.40125	125.23925	860.12756	
691	6.900	-689.40131	1538.81458	860.16083	-588.98535	1681.14368	979.93823							-382.47940	1545.95544	1104.73975	-506.18167	1462.72534	718.16827	-525.20294	1342.85400	942.25226				-512.72180	1337.03186	1162.81799	-507.36404	1219.79517	583.74280	-320.37341	1278.53870	1208.07227	-711.74359	1125.14966	658.91467	-466.63693	962.35516	1110.71570	-563.05042	960.48676	834.24994	-248.13690	997.73840	859.46655	-367.70969	514.50696	1078.36353	-610.18097	546.22797	832.81726	-153.95171	128.04875	955.75519	-573.94458	124.47643	859.03003	
692	6.910	-694.37988	1538.26001	855.99615	-595.34381	1680.85779	976.54114							-390.15417	1546.34534	1104.06628	-509.31909	1461.15686	716.15472	-530.96478	1342.29846	940.86572	-493.40631	1782.09558	872.51862	-520.07361	1337.03284	1161.02954	-507.77927	1217.91418	582.29694	-329.08173	1277.69641	1209.11243	-713.09979	1123.37415	654.94818	-472.62299	962.49384	1110.48047	-568.21771	959.55731	833.95050	-253.14363	996.72412	860.99774	-371.67078	513.41150	1077.93335	-615.92505	546.32159	832.28473	-154.42395	129.33374	956.16425	-576.19110	123.62476	857.41547	
693	6.920	-699.42871	1537.67383	851.78961	-601.22992	1680.43469	972.96655							-397.55887	1546.45801	1103.19263	-512.78699	1459.87976	714.39209	-538.00702	1342.81702	940.03369	-498.34885	1781.38269	869.92548	-527.48450	1336.90015	1159.19104	-508.35693	1216.54773	581.09625	-336.83923	1278.22412	1210.29919	-714.51044	1121.31018	651.13055	-478.68054	962.69568	1110.02100	-573.44757	958.63904	833.46600	-259.40442	996.27063	861.68848	-376.55264	513.14447	1077.57483	-621.25372	544.82434	831.80243	-154.64081	130.08698	957.06769	-577.16187	123.00812	857.38031	
694	6.930	-704.55975	1537.11414	847.61700	-607.16693	1679.77112	969.33759							-404.99710	1546.58630	1102.27844	-516.25861	1458.43640	712.64850	-543.97095	1342.32776	938.37555				-535.47870	1336.98230	1157.31848	-509.58682	1215.14673	579.51068	-345.95383	1277.88574	1209.18152	-716.21332	1119.58459	646.89166	-485.53897	963.11670	1109.94360	-578.90936	957.77844	832.80658	-264.99963	995.30347	863.74005	-381.33136	512.72021	1076.99036	-626.40601	543.78510	831.86804	-155.15709	131.40202	957.08954	-577.94354	122.46146	857.96320	
695	6.940	-709.75519	1536.53308	843.31500	-614.01288	1679.39807	965.84814							-412.80820	1546.54236	1101.31470	-519.71301	1457.06299	710.49139	-549.92462	1341.78735	936.56140	-508.57883	1779.90833	864.45300	-543.45471	1337.04565	1154.60864	-509.54684	1212.83655	578.59314	-353.88477	1277.69836	1208.90613	-717.61005	1117.51270	643.02185	-491.85629	963.06097	1109.55945	-584.72156	957.12622	831.94232	-271.21323	995.02368	865.23883	-386.17606	512.10193	1075.61987	-632.08185	543.33801	831.59509	-155.87082	132.53613	957.18195	-577.71271	122.31567	859.56427	
696	6.950	-715.01422	1535.96826	839.00507										-420.74429	1546.58826	1100.18237	-523.58075	1455.80688	708.87598	-556.07318	1341.42761	934.33386	-513.88434	1779.35962	861.60974	-551.20557	1336.87427	1153.07971	-510.52426	1211.26770	577.50116	-361.89783	1278.38416	1207.84924	-718.89465	1115.55798	639.14667	-498.78476	963.17596	1108.70093	-590.52649	956.39441	830.87396	-277.71701	994.63074	866.79767	-390.78748	510.99478	1073.73523	-637.47296	542.53607	831.37683	-156.64925	133.73689	957.68134	-578.29510	122.24418	860.91565	
697	6.960	-720.17706	1535.33032	834.48798										-428.07974	1546.08667	1098.87903	-527.11902	1454.89868	706.61444	-562.59283	1340.96655	932.59167	-519.46393	1778.84753	858.75482	-559.26990	1336.67346	1150.87939	-511.18805	1209.63867	576.01636	-371.12311	1277.79150	1207.36060	-720.03217	1113.50757	635.32544	-505.50211	963.21918	1107.26270	-596.45764	955.82684	829.56195	-283.63525	994.49219	868.06927	-396.47165	510.94641	1072.65710	-642.38843	541.77521	830.75793	-157.20772	135.43565	958.32031	-578.53131	121.90454	862.08209	
698	6.970	-725.79230	1534.81189	830.07111										-436.46979	1546.37805	1097.48596	-530.83215	1453.52661	704.25024	-568.79517	1340.63208	930.30066	-525.08197	1778.07666	855.95526	-567.53302	1336.59924	1148.59900	-511.91922	1207.75781	574.87531	-379.50259	1277.48633	1207.52783	-721.44678	1111.38965	631.44214	-513.09668	963.67371	1105.99487	-602.74097	955.51923	828.17706	-290.76434	993.81433	868.59131	-402.10632	510.49713	1070.50244	-647.16437	540.41656	831.15564	-158.19487	137.28966	958.20349	-578.78467	121.51965	862.81012	
699	6.980	-731.38538	1534.25366	825.57440										-444.45090	1546.43726	1096.04785	-534.54315	1452.20984	701.57959	-575.34619	1340.28296	927.85724	-531.11633	1777.66321	853.08655	-575.70398	1336.48682	1146.00647	-512.89111	1205.74487	574.33435	-388.00339	1277.37427	1206.27527	-722.79010	1109.57092	627.44098	-520.76617	963.87756	1104.48767	-609.09186	955.31329	826.66101	-297.28217	993.39063	869.77936	-407.72681	510.25003	1068.10669	-651.35889	539.48389	831.32434	-159.29257	138.95195	959.65814	-578.87207	121.20467	863.32202	
